<svg xmlns="http://www.w3.org/2000/svg" viewBox="0 0 200 200" width="200" height="200">
  <!-- Fondo circular -->
  <circle cx="100" cy="100" r="100" fill="#4B0082" />
  
  <!-- Círculo interior más claro -->
  <circle cx="100" cy="100" r="80" fill="#9370DB" opacity="0.3" />
  
  <!-- Portapapeles -->
  <rect x="60" y="40" width="80" height="120" rx="8" ry="8" fill="#F8F8FF" />
  
  <!-- Clip superior del portapapeles -->
  <rect x="85" y="30" width="30" height="20" rx="5" ry="5" fill="#9370DB" />
  
  <!-- Líneas de tareas -->
  <rect x="75" y="70" width="50" height="8" rx="4" ry="4" fill="#4B0082" />
  <rect x="75" y="90" width="50" height="8" rx="4" ry="4" fill="#4B0082" />
  <rect x="75" y="110" width="50" height="8" rx="4" ry="4" fill="#4B0082" />
  <rect x="75" y="130" width="50" height="8" rx="4" ry="4" fill="#4B0082" />
  
  <!-- Círculos de marcadores -->
  <circle cx="65" cy="74" r="6" fill="#9370DB" />
  <circle cx="65" cy="94" r="6" fill="#9370DB" />
  <circle cx="65" cy="114" r="6" fill="#9370DB" />
  <circle cx="65" cy="134" r="6" fill="#9370DB" />
  
  <!-- Lápiz -->
  <g transform="translate(140, 60) rotate(45)">
    <rect x="-5" y="-40" width="10" height="80" rx="2" ry="2" fill="#9370DB" />
    <polygon points="0,-45 -5,-40 5,-40" fill="#4B0082" />
  </g>
</svg>