<?xml version="1.0" encoding="UTF-8" standalone="no"?>
<svg width="800" height="400" viewBox="0 0 800 400" xmlns="http://www.w3.org/2000/svg">
  <!-- Purple Theme -->
  <rect x="10" y="10" width="220" height="180" rx="10" fill="#f5f3ff" stroke="#8b5cf6" stroke-width="2"/>
  <rect x="20" y="20" width="200" height="40" rx="5" fill="#8b5cf6"/>
  <text x="120" y="45" font-family="Arial" font-size="16" fill="white" text-anchor="middle">Purple (Default)</text>
  <rect x="20" y="70" width="200" height="30" rx="5" fill="#ddd6fe"/>
  <rect x="20" y="110" width="200" height="30" rx="5" fill="#ddd6fe"/>
  <rect x="20" y="150" width="80" height="30" rx="15" fill="#7c3aed"/>
  
  <!-- Dark Premium Theme -->
  <rect x="240" y="10" width="220" height="180" rx="10" fill="#121212" stroke="#a66cff" stroke-width="2"/>
  <rect x="250" y="20" width="200" height="40" rx="5" fill="#1e1e1e"/>
  <text x="350" y="45" font-family="Arial" font-size="16" fill="#a66cff" text-anchor="middle">Dark Premium</text>
  <rect x="250" y="70" width="200" height="30" rx="5" fill="#333333"/>
  <rect x="250" y="110" width="200" height="30" rx="5" fill="#333333"/>
  <rect x="250" y="150" width="80" height="30" rx="15" fill="#a66cff"/>
  
  <!-- Minimalista Moderna Theme -->
  <rect x="470" y="10" width="220" height="180" rx="10" fill="#ffffff" stroke="#4cb9e7" stroke-width="2"/>
  <rect x="480" y="20" width="200" height="40" rx="5" fill="#f5f5f5"/>
  <text x="580" y="45" font-family="Arial" font-size="16" fill="#333333" text-anchor="middle">Minimalista Moderna</text>
  <rect x="480" y="70" width="200" height="30" rx="5" fill="#f5f5f5"/>
  <rect x="480" y="110" width="200" height="30" rx="5" fill="#f5f5f5"/>
  <rect x="480" y="150" width="80" height="30" rx="15" fill="#4cb9e7"/>
  
  <!-- Productividad Natural Theme -->
  <rect x="10" y="210" width="220" height="180" rx="10" fill="#f5f1e8" stroke="#e2a890" stroke-width="2"/>
  <rect x="20" y="220" width="200" height="40" rx="5" fill="#c5d5cb"/>
  <text x="120" y="245" font-family="Arial" font-size="14" fill="#2d4f3a" text-anchor="middle">Productividad Natural</text>
  <rect x="20" y="270" width="200" height="30" rx="5" fill="#e8e4db"/>
  <rect x="20" y="310" width="200" height="30" rx="5" fill="#e8e4db"/>
  <rect x="20" y="350" width="80" height="30" rx="15" fill="#2d4f3a"/>
  
  <!-- Neo-Digital Theme -->
  <rect x="240" y="210" width="220" height="180" rx="10" fill="#192a51" stroke="#00b7c2" stroke-width="2"/>
  <rect x="250" y="220" width="200" height="40" rx="5" fill="#114e60"/>
  <text x="350" y="245" font-family="Arial" font-size="16" fill="#f1fafb" text-anchor="middle">Neo-Digital</text>
  <rect x="250" y="270" width="200" height="30" rx="5" fill="#114e60"/>
  <rect x="250" y="310" width="200" height="30" rx="5" fill="#114e60"/>
  <rect x="250" y="350" width="80" height="30" rx="15" fill="#ff6b6b"/>
  
  <!-- Gradientes Suaves Theme -->
  <defs>
    <linearGradient id="gradient" x1="0%" y1="0%" x2="100%" y2="100%">
      <stop offset="0%" stop-color="#a78bfa" />
      <stop offset="100%" stop-color="#818cf8" />
    </linearGradient>
  </defs>
  <rect x="470" y="210" width="220" height="180" rx="10" fill="url(#gradient)" stroke="#fd8a8a" stroke-width="2"/>
  <rect x="480" y="220" width="200" height="40" rx="5" fill="white" fill-opacity="0.2"/>
  <text x="580" y="245" font-family="Arial" font-size="16" fill="white" text-anchor="middle">Gradientes Suaves</text>
  <rect x="480" y="270" width="200" height="30" rx="5" fill="white" fill-opacity="0.2"/>
  <rect x="480" y="310" width="200" height="30" rx="5" fill="white" fill-opacity="0.2"/>
  <rect x="480" y="350" width="80" height="30" rx="15" fill="#fd8a8a"/>
  
  <!-- Neomorfismo Theme -->
  <rect x="700" y="10" width="220" height="180" rx="10" fill="#e6e7ee" stroke="#d1d9e6" stroke-width="2"/>
  <filter id="neomorphism">
    <feDropShadow dx="3" dy="3" stdDeviation="3" flood-color="#d1d9e6" flood-opacity="1"/>
    <feDropShadow dx="-3" dy="-3" stdDeviation="3" flood-color="#ffffff" flood-opacity="1"/>
  </filter>
  <rect x="710" y="20" width="200" height="40" rx="5" fill="#e6e7ee" filter="url(#neomorphism)"/>
  <text x="810" y="45" font-family="Arial" font-size="16" fill="#6d7f91" text-anchor="middle">Neomorfismo</text>
  <rect x="710" y="70" width="200" height="30" rx="5" fill="#e6e7ee" filter="url(#neomorphism)"/>
  <rect x="710" y="110" width="200" height="30" rx="5" fill="#e6e7ee" filter="url(#neomorphism)"/>
  <rect x="710" y="150" width="80" height="30" rx="15" fill="#84dfaa"/>
</svg>